<svg width="100" height="125" viewBox="0 0 100 125" fill="none" xmlns="http://www.w3.org/2000/svg">
<g opacity="0.2">
<path d="M21 15C11.0799 15 3 23.0799 3 33V55C3 64.9201 11.0799 73 21 73H63.75C65.8898 79.9432 72.3766 85 80 85C89.3533 85 97 77.3533 97 68C97 60.3899 91.9247 53.9324 85 51.7812V33C85 23.0799 76.9201 15 67 15H21ZM21 21H67C73.6999 21 79 26.3001 79 33V51.0625C70.4496 51.5711 63.5711 58.4497 63.0625 67H21C14.3001 67 9 61.6999 9 55V33C9 26.3001 14.3001 21 21 21ZM36 33V55.3125C36.009 57.4552 38.4998 58.7513 40.3438 57.6875L58.375 46.6875C59.2571 46.1489 59.8125 45.0779 59.8125 44C59.8125 42.9221 59.2571 41.8511 58.375 41.3125L40.3438 30.3125C38.0441 29.3809 36.0493 31.3026 36 33ZM41.8438 38.3438L51.0625 44L41.8438 49.6562V38.3438ZM80 57C86.1107 57 91 61.8893 91 68C91 74.1107 86.1107 79 80 79C73.8893 79 69 74.1107 69 68C69 61.8893 73.8893 57 80 57ZM80 58C79.1719 58 78.4176 58.3321 77.875 58.875L72.875 63.875C71.7039 65.0466 71.704 66.9535 72.875 68.125C74.008 69.2585 75.8228 69.2781 77 68.219V75.0002C77 76.6571 78.3439 78.0002 80 78.0002C81.656 78.0002 83 76.6571 83 75.0002V68.219C84.1772 69.2787 85.992 69.2591 87.125 68.125C88.296 66.9535 88.2961 65.0466 87.125 63.875L82.125 58.875C81.5824 58.3321 80.828 58 80 58Z" fill="black"/>
</g>
</svg>
