<svg width="100" height="125" viewBox="0 0 100 125" fill="none" xmlns="http://www.w3.org/2000/svg">
<g opacity="0.2">
<path d="M85 90.1C85 92.8 82.8 95 80.1 95H19.9C17.2 95 15 92.8 15 90.1V9.9C15 7.2 17.2 5 19.9 5H80.1C82.8 5 85 7.2 85 9.9V90.1ZM20 90H80V10H20V90Z" fill="black"/>
<path d="M71 21H29V26H71V21Z" fill="black"/>
<path d="M71 33H29V38H71V33Z" fill="black"/>
<path d="M71 45H29V50H71V45Z" fill="black"/>
<path d="M71 58H29V63H71V58Z" fill="black"/>
<path d="M47.9 83.2L40.2 76.7L42.8 73.6L47.7 77.7L57.1 68.5L59.9 71.4L47.9 83.2Z" fill="black"/>
</g>
</svg>
