<svg width="54" height="46" viewBox="0 0 54 46" fill="none" xmlns="http://www.w3.org/2000/svg">
<g clip-path="url(#clip0)">
<path d="M37.608 23.7655L38.028 23.3429C38.1396 23.2324 38.2281 23.1011 38.2885 22.9566C38.3489 22.8121 38.3799 22.6572 38.3799 22.5007C38.3799 22.3443 38.3489 22.1894 38.2885 22.0449C38.2281 21.9004 38.1396 21.7691 38.028 21.6585L27.828 11.5405C27.6032 11.3188 27.299 11.1943 26.982 11.1943C26.665 11.1943 26.3608 11.3188 26.136 11.5405L15.936 21.6585C15.8244 21.7691 15.7359 21.9004 15.6755 22.0449C15.6151 22.1894 15.5841 22.3443 15.5841 22.5007C15.5841 22.6572 15.6151 22.8121 15.6755 22.9566C15.7359 23.1011 15.8244 23.2324 15.936 23.3429L16.356 23.7655C16.4674 23.8762 16.5998 23.964 16.7455 24.0239C16.8911 24.0838 17.0473 24.1146 17.205 24.1146C17.3627 24.1146 17.5189 24.0838 17.6645 24.0239C17.8102 23.964 17.9426 23.8762 18.054 23.7655L25.5 16.415V35.6096C25.5 35.9253 25.6264 36.2281 25.8515 36.4513C26.0765 36.6745 26.3817 36.7999 26.7 36.7999H27.3C27.6183 36.7999 27.9235 36.6745 28.1485 36.4513C28.3736 36.2281 28.5 35.9253 28.5 35.6096V16.415L35.91 23.7655C36.0214 23.8762 36.1538 23.964 36.2995 24.0239C36.4452 24.0838 36.6013 24.1146 36.759 24.1146C36.9167 24.1146 37.0729 24.0838 37.2185 24.0239C37.3642 23.964 37.4966 23.8762 37.608 23.7655Z" fill="#1A1A1A"/>
<path d="M46.596 17.2124C46.3336 13.069 44.6629 9.13614 41.8568 6.05601C39.0506 2.97589 35.2747 0.930394 31.1455 0.253477C27.0163 -0.423441 22.7777 0.308205 19.1217 2.32897C15.4657 4.34973 12.6083 7.54024 11.016 11.3796C7.80076 11.83 4.87731 13.4731 2.83537 15.9776C0.793417 18.482 -0.215082 21.6615 0.0132911 24.8745C0.241665 28.0876 1.68992 31.0952 4.06592 33.2907C6.44192 35.4862 9.56886 36.7062 12.816 36.7045H16.2C16.5978 36.7045 16.9794 36.5478 17.2607 36.2687C17.542 35.9897 17.7 35.6112 17.7 35.2166C17.7 34.822 17.542 34.4435 17.2607 34.1644C16.9794 33.8854 16.5978 33.7286 16.2 33.7286H12.834C10.342 33.6451 7.97515 32.625 6.21295 30.8751C4.45075 29.1253 3.42494 26.7764 3.34332 24.3043C3.2617 21.8322 4.13037 19.4217 5.77337 17.5612C7.41636 15.7007 9.71084 14.5292 12.192 14.2841C12.4848 14.2635 12.7652 14.1584 12.9987 13.9819C13.2322 13.8053 13.4085 13.5648 13.506 13.2901C14.714 9.8662 17.1036 6.97629 20.2523 5.13144C23.4011 3.2866 27.106 2.60568 30.712 3.20909C34.318 3.81251 37.5927 5.66138 39.9571 8.42877C42.3215 11.1962 43.6232 14.7038 43.632 18.3313V18.4504C43.6304 18.8115 43.7619 19.1608 44.0016 19.4326C44.2414 19.7044 44.5729 19.88 44.934 19.9264C46.6513 20.1558 48.2215 21.0098 49.34 22.3226C50.4585 23.6355 51.0455 25.3136 50.9872 27.0315C50.9289 28.7494 50.2294 30.3846 49.0245 31.6199C47.8195 32.8552 46.195 33.6024 44.466 33.7167L44.274 33.7465H37.8C37.4022 33.7465 37.0206 33.9033 36.7393 34.1823C36.458 34.4613 36.3 34.8398 36.3 35.2344C36.3 35.6291 36.458 36.0075 36.7393 36.2866C37.0206 36.5656 37.4022 36.7224 37.8 36.7224H44.568C44.7041 36.7205 44.8393 36.7005 44.97 36.6629C47.2983 36.4378 49.4732 35.4093 51.1155 33.7567C52.7578 32.1041 53.7633 29.9322 53.9568 27.6195C54.1504 25.3069 53.5196 23.0003 52.1744 21.1017C50.8293 19.2031 48.8551 17.833 46.596 17.2302V17.2124Z" fill="#1A1A1A"/>
</g>
<defs>
<clipPath id="clip0">
<rect width="54" height="46" fill="white"/>
</clipPath>
</defs>
</svg>
